Transformers: The Dark of the Moon 3D OU.2011.1080p.BluRay.x264.AC3.Half.Over-Under.[PHD]

video 3D

  http://www.imdb.com/title/tt1399103/

INFO <> INFO <> INFO <> INFO

Format : Matroska
 File size : 19.0 GiB
 Duration : 2h 34mn
 Overall bit rate : 17.6 Mbps
 Movie name : Transformers: Dark of the Moon 3D (Ash61)
 Encoded date : UTC 2012-01-25 16:03:39

Video:
 ID : 1
 Format : AVC
 Format/Info : Advanced Video Codec
 Format profile : High@L4.1
 Format settings, CABAC : Yes
 Format settings, ReFrames : 4 frames
 Codec ID : V_MPEG4/ISO/AVC
 Duration : 2h 34mn
 Bit rate : 15.0 Mbps
 Width : 1 920 pixels
 Height : 1 080 pixels
 Display aspect ratio : 16:9
 Frame rate : 23.976 fps
 Color space : YUV
 Chroma subsampling : 4:2:0
 Bit depth : 8 bits
 Scan type : Progressive
 Bits/(Pixel*Frame) : 0.301
 Stream size : 16.1 GiB (85%)
 Title : BDrip by Ash61

Audio #1
 ID : 2
 Format : AC-3
 Format/Info : Audio Coding 3
 Mode extension : CM (complete main)
 Codec ID : A_AC3
 Duration : 2h 34mn
 Bit rate mode : Constant
 Bit rate : 640 Kbps
 Channel(s) : 6 channels
 Channel positions : Front: L C R, Side: L R, LFE
 Sampling rate : 48.0 KHz
 Bit depth : 16 bits
 Compression mode : Lossy
 Stream size : 707 MiB (4%)
 Title : ╨ö╤â╨▒╨╗╤Å╨╢
 Language : Russian

Audio #2
 ID : 3
 Format : AC-3
 Format/Info : Audio Coding 3
 Mode extension : CM (complete main)
 Codec ID : A_AC3
 Duration : 2h 34mn
 Bit rate mode : Constant
 Bit rate : 640 Kbps
 Channel(s) : 6 channels
 Channel positions : Front: L C R, Side: L R, LFE
 Sampling rate : 48.0 KHz
 Bit depth : 16 bits
 Compression mode : Lossy
 Stream size : 707 MiB (4%)
 Title : MVO - BBC Saint Petersburg
 Language : Russian

Audio #3
 ID : 4
 Format : AC-3
 Format/Info : Audio Coding 3
 Mode extension : CM (complete main)
 Codec ID : A_AC3
 Duration : 2h 34mn
 Bit rate mode : Constant
 Bit rate : 384 Kbps
 Channel(s) : 6 channels
 Channel positions : Front: L C R, Side: L R, LFE
 Sampling rate : 48.0 KHz
 Bit depth : 16 bits
 Compression mode : Lossy
 Stream size : 424 MiB (2%)
 Title : ╨ö╤â╨▒╨╗╤Å╨╢
 Language : Ukrainian

Audio #4
 ID : 5
 Format : AC-3
 Format/Info : Audio Coding 3
 Mode extension : CM (complete main)
 Codec ID : A_AC3
 Duration : 2h 34mn
 Bit rate mode : Constant
 Bit rate : 640 Kbps
 Channel(s) : 6 channels
 Channel positions : Front: L C R, Side: L R, LFE
 Sampling rate : 48.0 KHz
 Bit depth : 16 bits
 Compression mode : Lossy
 Stream size : 707 MiB (4%)
 Title : Original
 Language : English